<mxfile host="app.diagrams.net" modified="2023-04-12T08:42:59.070Z" agent="Mozilla/5.0 (Macintosh; Intel Mac OS X 10_15_7) AppleWebKit/537.36 (KHTML, like Gecko) Chrome/111.0.0.0 Safari/537.36" version="21.1.6" etag="jECHOR6NuI48PYr-k30D" type="github">
  <diagram name="第 1 页" id="pDnjsGyQ0WbjZxfnPAlc">
    <mxGraphModel>
      <root>
        <mxCell id="0" />
        <mxCell id="1" parent="0" />
      </root>
    </mxGraphModel>
  </diagram>
</mxfile>
